<svg xmlns="http://www.w3.org/2000/svg" xmlns:xlink="http://www.w3.org/1999/xlink" width="1920" zoomAndPan="magnify" viewBox="0 0 1440 809.999993" height="1080" preserveAspectRatio="xMidYMid meet" version="1.0"><defs><clipPath id="f299f8fa7c"><path d="M 1280 627 L 1439.648438 627 L 1439.648438 788 L 1280 788 Z M 1280 627 " clip-rule="nonzero"/></clipPath><clipPath id="f80a80bf95"><path d="M 915 659 L 1067 659 L 1067 809.761719 L 915 809.761719 Z M 915 659 " clip-rule="nonzero"/></clipPath><clipPath id="4c9674e32e"><path d="M 801.398438 717 L 828 717 L 828 744 L 801.398438 744 Z M 801.398438 717 " clip-rule="nonzero"/></clipPath><clipPath id="cee2e08986"><path d="M 1260 371.761719 L 1438 371.761719 L 1438 550 L 1260 550 Z M 1260 371.761719 " clip-rule="nonzero"/></clipPath><clipPath id="7c54692471"><path d="M 46.339844 139.460938 L 335 139.460938 L 335 556 L 46.339844 556 Z M 46.339844 139.460938 " clip-rule="nonzero"/></clipPath><clipPath id="e236a8eb6a"><path d="M 136 139.460938 L 431 139.460938 L 431 556 L 136 556 Z M 136 139.460938 " clip-rule="nonzero"/></clipPath><clipPath id="9c52725b14"><path d="M 229 139.460938 L 522.589844 139.460938 L 522.589844 556.460938 L 229 556.460938 Z M 229 139.460938 " clip-rule="nonzero"/></clipPath></defs><rect x="-144" width="1728" fill="#ffffff" y="-80.999999" height="971.999992" fill-opacity="1"/><rect x="-144" width="1728" fill="#ffffff" y="-80.999999" height="971.999992" fill-opacity="1"/><path fill="#004aad" d="M 1281.464844 677.535156 L 1309.421875 705.488281 C 1309.992188 706.0625 1310.136719 706.636719 1310.136719 707.351562 C 1310.136719 708.070312 1309.851562 708.644531 1309.421875 709.21875 L 1281.464844 737.171875 C 1280.894531 737.746094 1280.320312 737.886719 1279.601562 737.886719 C 1278.886719 737.886719 1278.3125 737.601562 1277.738281 737.171875 L 1249.785156 709.21875 C 1249.210938 708.644531 1249.070312 708.070312 1249.070312 707.351562 C 1249.070312 706.636719 1249.355469 706.0625 1249.785156 705.488281 L 1277.738281 677.535156 C 1278.3125 676.960938 1278.886719 676.820312 1279.601562 676.820312 C 1280.320312 676.820312 1280.894531 677.105469 1281.464844 677.535156 Z M 1308.703125 706.0625 L 1280.75 678.109375 C 1280.464844 677.820312 1280.03125 677.535156 1279.460938 677.535156 C 1279.03125 677.535156 1278.597656 677.679688 1278.167969 678.109375 L 1250.214844 706.0625 C 1249.929688 706.351562 1249.640625 706.78125 1249.640625 707.351562 C 1249.640625 707.785156 1249.785156 708.214844 1250.214844 708.644531 L 1278.167969 736.597656 C 1278.457031 736.882812 1278.886719 737.171875 1279.460938 737.171875 C 1279.890625 737.171875 1280.320312 737.027344 1280.75 736.597656 L 1308.703125 708.644531 C 1308.992188 708.355469 1309.277344 707.925781 1309.277344 707.351562 C 1309.277344 706.921875 1309.132812 706.492188 1308.703125 706.0625 Z M 1308.703125 706.0625 " fill-opacity="1" fill-rule="nonzero"/><path fill="#004aad" d="M 1224.410156 711.222656 L 1263.691406 750.503906 C 1264.695312 751.507812 1265.125 752.796875 1265.125 754.085938 C 1265.125 755.375 1264.695312 756.667969 1263.691406 757.671875 L 1224.410156 796.949219 C 1223.40625 797.953125 1222.117188 798.382812 1220.828125 798.382812 C 1219.539062 798.382812 1218.246094 797.953125 1217.242188 796.949219 L 1177.964844 757.671875 C 1176.960938 756.667969 1176.53125 755.375 1176.53125 754.085938 C 1176.53125 752.796875 1176.960938 751.507812 1177.964844 750.503906 L 1217.242188 711.222656 C 1218.246094 710.21875 1219.539062 709.789062 1220.828125 709.789062 C 1222.117188 709.789062 1223.40625 710.21875 1224.410156 711.222656 Z M 1260.96875 753.371094 L 1221.6875 714.089844 C 1221.542969 713.949219 1221.257812 713.804688 1220.972656 713.804688 C 1220.683594 713.804688 1220.398438 713.949219 1220.253906 714.089844 L 1180.976562 753.371094 C 1180.832031 753.511719 1180.6875 753.800781 1180.6875 754.085938 C 1180.6875 754.375 1180.832031 754.660156 1180.976562 754.804688 L 1220.253906 794.082031 C 1220.398438 794.226562 1220.683594 794.371094 1220.972656 794.371094 C 1221.257812 794.371094 1221.542969 794.226562 1221.6875 794.082031 L 1260.96875 754.804688 C 1261.109375 754.660156 1261.253906 754.375 1261.253906 754.085938 C 1261.253906 753.800781 1261.109375 753.511719 1260.96875 753.371094 Z M 1260.96875 753.371094 " fill-opacity="1" fill-rule="nonzero"/><path fill="#004aad" d="M 1165.636719 624.0625 L 1200.042969 658.46875 C 1200.613281 659.042969 1200.902344 659.902344 1200.902344 660.761719 C 1200.902344 661.625 1200.613281 662.339844 1200.042969 663.058594 L 1165.636719 697.460938 C 1165.0625 698.035156 1164.203125 698.320312 1163.34375 698.320312 C 1162.484375 698.320312 1161.765625 698.035156 1161.050781 697.460938 L 1126.644531 663.058594 C 1126.070312 662.484375 1125.785156 661.625 1125.785156 660.761719 C 1125.785156 659.902344 1126.070312 659.1875 1126.644531 658.46875 L 1161.050781 624.0625 C 1161.621094 623.492188 1162.484375 623.203125 1163.34375 623.203125 C 1164.203125 623.203125 1164.917969 623.492188 1165.636719 624.0625 Z M 1199.46875 659.042969 L 1165.0625 624.636719 C 1164.632812 624.207031 1164.058594 623.921875 1163.484375 623.921875 C 1162.914062 623.921875 1162.339844 624.207031 1161.910156 624.636719 L 1127.503906 659.042969 C 1127.074219 659.472656 1126.789062 660.046875 1126.789062 660.621094 C 1126.789062 661.191406 1127.074219 661.765625 1127.503906 662.195312 L 1161.910156 696.601562 C 1162.339844 697.03125 1162.914062 697.320312 1163.484375 697.320312 C 1164.058594 697.320312 1164.632812 697.03125 1165.0625 696.601562 L 1199.46875 662.195312 C 1199.898438 661.765625 1200.183594 661.191406 1200.183594 660.621094 C 1200.183594 660.046875 1199.898438 659.472656 1199.46875 659.042969 Z M 1199.46875 659.042969 " fill-opacity="1" fill-rule="nonzero"/><path fill="#004aad" d="M 1095.824219 600.125 L 1146.140625 650.441406 C 1147.144531 651.445312 1147.574219 652.734375 1147.574219 653.882812 C 1147.574219 655.171875 1147.144531 656.460938 1146.140625 657.324219 L 1095.824219 707.640625 C 1094.820312 708.644531 1093.527344 709.074219 1092.382812 709.074219 C 1091.09375 709.074219 1089.800781 708.644531 1088.941406 707.640625 L 1038.625 657.324219 C 1037.621094 656.320312 1037.191406 655.027344 1037.191406 653.882812 C 1037.191406 652.59375 1037.621094 651.300781 1038.625 650.441406 L 1088.941406 600.125 C 1089.945312 599.121094 1091.234375 598.691406 1092.382812 598.691406 C 1093.671875 598.691406 1094.960938 599.121094 1095.824219 600.125 Z M 1144.851562 651.875 L 1094.53125 601.558594 C 1093.960938 600.984375 1093.242188 600.699219 1092.382812 600.699219 C 1091.664062 600.699219 1090.804688 600.984375 1090.230469 601.558594 L 1039.914062 651.875 C 1039.339844 652.449219 1039.054688 653.164062 1039.054688 654.027344 C 1039.054688 654.742188 1039.339844 655.601562 1039.914062 656.175781 L 1090.230469 706.492188 C 1090.804688 707.066406 1091.523438 707.351562 1092.382812 707.351562 C 1093.097656 707.351562 1093.960938 707.066406 1094.53125 706.492188 L 1144.851562 656.175781 C 1145.421875 655.601562 1145.710938 654.886719 1145.710938 654.027344 C 1145.710938 653.308594 1145.421875 652.449219 1144.851562 651.875 Z M 1144.851562 651.875 " fill-opacity="1" fill-rule="nonzero"/><path fill="#004aad" d="M 1239.464844 599.550781 L 1300.820312 660.90625 C 1302.109375 662.195312 1302.828125 663.917969 1302.828125 665.78125 C 1302.828125 667.5 1302.109375 669.222656 1300.820312 670.65625 L 1239.464844 732.011719 C 1238.171875 733.300781 1236.453125 734.015625 1234.589844 734.015625 C 1232.871094 734.015625 1231.148438 733.300781 1229.714844 732.011719 L 1168.359375 670.65625 C 1167.070312 669.363281 1166.351562 667.644531 1166.351562 665.78125 C 1166.351562 664.058594 1167.070312 662.339844 1168.359375 661.050781 L 1229.714844 599.695312 C 1231.003906 598.402344 1232.726562 597.6875 1234.589844 597.6875 C 1236.308594 597.6875 1238.03125 598.402344 1239.464844 599.695312 Z M 1297.953125 663.628906 L 1236.597656 602.273438 C 1236.023438 601.699219 1235.304688 601.414062 1234.589844 601.414062 C 1233.871094 601.414062 1233.15625 601.699219 1232.582031 602.273438 L 1171.226562 663.628906 C 1170.652344 664.203125 1170.367188 664.921875 1170.367188 665.636719 C 1170.367188 666.355469 1170.652344 667.070312 1171.226562 667.644531 L 1232.582031 729 C 1233.15625 729.574219 1233.871094 729.859375 1234.589844 729.859375 C 1235.304688 729.859375 1236.023438 729.574219 1236.597656 729 L 1297.953125 667.644531 C 1298.527344 667.070312 1298.8125 666.355469 1298.8125 665.636719 C 1298.8125 664.921875 1298.527344 664.203125 1297.953125 663.628906 Z M 1297.953125 663.628906 " fill-opacity="1" fill-rule="nonzero"/><path fill="#004aad" d="M 1349.417969 585.644531 L 1388.695312 624.925781 C 1389.414062 625.640625 1389.699219 626.5 1389.699219 627.363281 C 1389.699219 628.222656 1389.414062 629.226562 1388.695312 629.796875 L 1349.417969 669.078125 C 1348.699219 669.792969 1347.839844 670.082031 1346.980469 670.082031 C 1346.121094 670.082031 1345.117188 669.792969 1344.542969 669.078125 L 1305.261719 629.796875 C 1304.546875 629.082031 1304.261719 628.222656 1304.261719 627.363281 C 1304.261719 626.5 1304.546875 625.496094 1305.261719 624.925781 L 1344.542969 585.644531 C 1345.257812 584.929688 1346.121094 584.640625 1346.980469 584.640625 C 1347.839844 584.640625 1348.84375 584.929688 1349.417969 585.644531 Z M 1388.121094 625.640625 L 1348.84375 586.363281 C 1348.269531 585.789062 1347.695312 585.644531 1346.980469 585.644531 C 1346.261719 585.644531 1345.6875 585.933594 1345.117188 586.363281 L 1305.835938 625.640625 C 1305.261719 626.214844 1305.121094 626.789062 1305.121094 627.503906 C 1305.121094 628.222656 1305.40625 628.796875 1305.835938 629.367188 L 1345.117188 668.648438 C 1345.6875 669.222656 1346.261719 669.363281 1346.980469 669.363281 C 1347.695312 669.363281 1348.269531 669.078125 1348.84375 668.648438 L 1388.121094 629.367188 C 1388.695312 628.796875 1388.839844 628.222656 1388.839844 627.503906 C 1388.839844 626.789062 1388.550781 626.214844 1388.121094 625.640625 Z M 1388.121094 625.640625 " fill-opacity="1" fill-rule="nonzero"/><g clip-path="url(#f299f8fa7c)"><path fill="#004aad" d="M 1364.753906 629.941406 L 1437.867188 703.050781 C 1439.15625 704.34375 1439.875 706.0625 1439.875 707.785156 C 1439.875 709.503906 1439.15625 711.222656 1437.867188 712.515625 L 1364.753906 785.625 C 1363.464844 786.914062 1361.746094 787.632812 1360.023438 787.632812 C 1358.304688 787.632812 1356.585938 786.914062 1355.292969 785.625 L 1282.183594 712.515625 C 1280.894531 711.222656 1280.175781 709.503906 1280.175781 707.785156 C 1280.175781 706.0625 1280.894531 704.34375 1282.183594 703.050781 L 1355.292969 629.941406 C 1356.585938 628.652344 1358.304688 627.933594 1360.023438 627.933594 C 1361.746094 627.933594 1363.464844 628.652344 1364.753906 629.941406 Z M 1436.433594 704.484375 L 1363.320312 631.375 C 1362.460938 630.515625 1361.171875 629.941406 1360.023438 629.941406 C 1358.734375 629.941406 1357.585938 630.371094 1356.726562 631.375 L 1283.617188 704.484375 C 1282.757812 705.347656 1282.183594 706.636719 1282.183594 707.785156 C 1282.183594 708.929688 1282.613281 710.21875 1283.617188 711.082031 L 1356.726562 784.191406 C 1357.585938 785.050781 1358.878906 785.625 1360.023438 785.625 C 1361.171875 785.625 1362.460938 785.195312 1363.320312 784.191406 L 1436.433594 711.082031 C 1437.292969 710.21875 1437.867188 708.929688 1437.867188 707.785156 C 1437.867188 706.636719 1437.4375 705.347656 1436.433594 704.484375 Z M 1436.433594 704.484375 " fill-opacity="1" fill-rule="nonzero"/></g><path fill="#004aad" d="M 1081.773438 665.921875 L 1132.664062 716.816406 C 1133.523438 717.675781 1133.953125 718.820312 1133.953125 719.96875 C 1133.953125 721.117188 1133.523438 722.261719 1132.664062 723.121094 L 1081.773438 774.011719 C 1080.914062 774.875 1079.765625 775.304688 1078.621094 775.304688 C 1077.472656 775.304688 1076.328125 774.875 1075.464844 774.011719 L 1024.574219 723.121094 C 1023.714844 722.261719 1023.285156 721.117188 1023.285156 719.96875 C 1023.285156 718.820312 1023.714844 717.675781 1024.574219 716.816406 L 1075.464844 665.921875 C 1076.328125 665.0625 1077.472656 664.632812 1078.621094 664.632812 C 1079.765625 664.632812 1080.914062 665.0625 1081.773438 665.921875 Z M 1131.949219 717.386719 L 1081.058594 666.496094 C 1080.339844 665.78125 1079.480469 665.492188 1078.476562 665.492188 C 1077.617188 665.492188 1076.613281 665.78125 1075.894531 666.496094 L 1025.003906 717.386719 C 1024.289062 718.105469 1024.003906 718.964844 1024.003906 719.824219 C 1024.003906 720.683594 1024.289062 721.6875 1025.003906 722.261719 L 1075.894531 773.152344 C 1076.613281 773.871094 1077.472656 774.15625 1078.476562 774.15625 C 1079.335938 774.15625 1080.339844 773.871094 1081.058594 773.152344 L 1131.949219 722.261719 C 1132.664062 721.546875 1132.953125 720.683594 1132.953125 719.824219 C 1132.953125 718.964844 1132.664062 717.960938 1131.949219 717.246094 Z M 1131.949219 717.386719 " fill-opacity="1" fill-rule="nonzero"/><path fill="#004aad" d="M 1100.984375 555.539062 L 1134.242188 588.800781 C 1134.816406 589.371094 1135.101562 590.234375 1135.101562 590.949219 C 1135.101562 591.667969 1134.816406 592.527344 1134.242188 593.101562 L 1100.984375 626.359375 C 1100.410156 626.929688 1099.550781 627.21875 1098.832031 627.21875 C 1098.117188 627.21875 1097.257812 626.929688 1096.683594 626.359375 L 1063.425781 593.101562 C 1062.851562 592.527344 1062.566406 591.667969 1062.566406 590.949219 C 1062.566406 590.234375 1062.851562 589.371094 1063.425781 588.800781 L 1096.683594 555.539062 C 1097.257812 554.96875 1098.117188 554.679688 1098.832031 554.679688 C 1099.550781 554.679688 1100.410156 554.96875 1100.984375 555.539062 Z M 1133.667969 589.515625 L 1100.410156 556.257812 C 1099.980469 555.828125 1099.40625 555.683594 1098.832031 555.683594 C 1098.257812 555.683594 1097.6875 555.828125 1097.257812 556.257812 L 1063.996094 589.515625 C 1063.566406 589.945312 1063.425781 590.519531 1063.425781 591.09375 C 1063.425781 591.667969 1063.566406 592.238281 1063.996094 592.667969 L 1097.257812 625.929688 C 1097.6875 626.359375 1098.257812 626.5 1098.832031 626.5 C 1099.40625 626.5 1099.980469 626.359375 1100.410156 625.929688 L 1133.667969 592.667969 C 1134.097656 592.238281 1134.242188 591.667969 1134.242188 591.09375 C 1134.242188 590.519531 1134.097656 589.945312 1133.667969 589.515625 Z M 1133.667969 589.515625 " fill-opacity="1" fill-rule="nonzero"/><path fill="#004aad" d="M 1259.820312 484.007812 L 1283.042969 507.230469 C 1283.472656 507.660156 1283.761719 508.234375 1283.761719 508.808594 C 1283.761719 509.378906 1283.472656 509.953125 1283.042969 510.382812 L 1259.820312 533.609375 C 1259.390625 534.039062 1258.816406 534.324219 1258.242188 534.324219 C 1257.667969 534.324219 1257.097656 534.039062 1256.667969 533.609375 L 1233.441406 510.382812 C 1233.011719 509.953125 1232.726562 509.378906 1232.726562 508.808594 C 1232.726562 508.234375 1233.011719 507.660156 1233.441406 507.230469 L 1256.667969 484.007812 C 1257.097656 483.578125 1257.667969 483.289062 1258.242188 483.289062 C 1258.816406 483.289062 1259.390625 483.578125 1259.820312 484.007812 Z M 1282.46875 507.949219 L 1259.246094 484.722656 C 1258.960938 484.4375 1258.671875 484.292969 1258.242188 484.292969 C 1257.957031 484.292969 1257.527344 484.4375 1257.238281 484.722656 L 1234.015625 507.949219 C 1233.730469 508.234375 1233.585938 508.519531 1233.585938 508.949219 C 1233.585938 509.238281 1233.730469 509.667969 1234.015625 509.953125 L 1257.238281 533.175781 C 1257.527344 533.464844 1257.8125 533.609375 1258.242188 533.609375 C 1258.53125 533.609375 1258.960938 533.464844 1259.246094 533.175781 L 1282.46875 509.953125 C 1282.757812 509.667969 1282.898438 509.378906 1282.898438 508.949219 C 1282.898438 508.664062 1282.757812 508.234375 1282.46875 507.949219 Z M 1282.46875 507.949219 " fill-opacity="1" fill-rule="nonzero"/><path fill="#004aad" d="M 1236.167969 538.050781 L 1275.445312 577.332031 C 1276.304688 578.191406 1276.59375 579.195312 1276.59375 580.199219 C 1276.59375 581.203125 1276.164062 582.347656 1275.445312 583.066406 L 1236.167969 622.34375 C 1235.304688 623.203125 1234.304688 623.492188 1233.300781 623.492188 C 1232.296875 623.492188 1231.148438 623.0625 1230.433594 622.34375 L 1191.152344 583.066406 C 1190.292969 582.203125 1190.007812 581.203125 1190.007812 580.199219 C 1190.007812 579.195312 1190.4375 578.046875 1191.152344 577.332031 L 1230.433594 538.050781 C 1231.292969 537.191406 1232.296875 536.90625 1233.300781 536.90625 C 1234.304688 536.90625 1235.449219 537.335938 1236.167969 538.050781 Z M 1274.011719 578.765625 L 1234.734375 539.484375 C 1234.304688 539.054688 1233.730469 538.910156 1233.300781 538.910156 C 1232.726562 538.910156 1232.152344 539.054688 1231.867188 539.484375 L 1192.585938 578.765625 C 1192.15625 579.195312 1192.011719 579.769531 1192.011719 580.199219 C 1192.011719 580.769531 1192.15625 581.203125 1192.585938 581.632812 L 1231.867188 620.910156 C 1232.296875 621.339844 1232.871094 621.484375 1233.300781 621.484375 C 1233.871094 621.484375 1234.304688 621.339844 1234.734375 620.910156 L 1274.011719 581.632812 C 1274.441406 581.203125 1274.585938 580.628906 1274.585938 580.199219 C 1274.585938 579.625 1274.441406 579.195312 1274.011719 578.765625 Z M 1274.011719 578.765625 " fill-opacity="1" fill-rule="nonzero"/><path fill="#004aad" d="M 1166.351562 522.28125 L 1222.40625 578.335938 C 1223.40625 579.335938 1223.980469 580.769531 1223.980469 582.203125 C 1223.980469 583.636719 1223.40625 584.929688 1222.40625 586.074219 L 1166.351562 642.128906 C 1165.347656 643.128906 1163.914062 643.703125 1162.484375 643.703125 C 1161.050781 643.703125 1159.757812 643.128906 1158.613281 642.128906 L 1102.558594 586.074219 C 1101.558594 585.070312 1100.984375 583.636719 1100.984375 582.203125 C 1100.984375 580.769531 1101.558594 579.480469 1102.558594 578.335938 L 1158.613281 522.28125 C 1159.617188 521.277344 1161.050781 520.707031 1162.484375 520.707031 C 1163.914062 520.707031 1165.207031 521.277344 1166.351562 522.28125 Z M 1220.972656 579.769531 L 1164.917969 523.714844 C 1164.203125 523 1163.34375 522.710938 1162.484375 522.710938 C 1161.621094 522.710938 1160.761719 523 1160.046875 523.714844 L 1103.992188 579.769531 C 1103.277344 580.484375 1102.992188 581.34375 1102.992188 582.203125 C 1102.992188 583.066406 1103.277344 583.925781 1103.992188 584.640625 L 1160.046875 640.695312 C 1160.761719 641.410156 1161.621094 641.695312 1162.484375 641.695312 C 1163.34375 641.695312 1164.203125 641.410156 1164.917969 640.695312 L 1220.972656 584.640625 C 1221.6875 583.925781 1221.972656 583.066406 1221.972656 582.203125 C 1221.972656 581.34375 1221.6875 580.484375 1220.972656 579.769531 Z M 1220.972656 579.769531 " fill-opacity="1" fill-rule="nonzero"/><path fill="#004aad" d="M 909.75 683.125 L 965.511719 738.890625 C 966.515625 739.894531 967.089844 741.328125 967.089844 742.761719 C 967.089844 744.195312 966.515625 745.484375 965.511719 746.632812 L 909.75 802.398438 C 908.746094 803.402344 907.3125 803.972656 905.878906 803.972656 C 904.445312 803.972656 903.15625 803.402344 902.152344 802.398438 L 846.386719 746.632812 C 845.382812 745.628906 844.808594 744.195312 844.808594 742.761719 C 844.808594 741.328125 845.382812 740.039062 846.386719 738.890625 L 902.152344 683.125 C 903.15625 682.121094 904.589844 681.550781 905.878906 681.550781 C 907.3125 681.550781 908.601562 682.121094 909.605469 683.125 Z M 964.078125 740.324219 L 908.316406 684.558594 C 907.597656 683.84375 906.738281 683.554688 905.878906 683.554688 C 905.019531 683.554688 904.15625 683.84375 903.441406 684.558594 L 847.675781 740.324219 C 846.960938 741.042969 846.671875 741.902344 846.671875 742.761719 C 846.671875 743.621094 846.960938 744.480469 847.675781 745.199219 L 903.441406 800.964844 C 904.15625 801.679688 905.019531 801.96875 905.878906 801.96875 C 906.738281 801.96875 907.597656 801.679688 908.316406 800.964844 L 964.078125 745.199219 C 964.796875 744.480469 965.082031 743.621094 965.082031 742.761719 C 965.082031 741.902344 964.796875 741.042969 964.078125 740.324219 Z M 964.078125 740.324219 " fill-opacity="1" fill-rule="nonzero"/><g clip-path="url(#f80a80bf95)"><path fill="#004aad" d="M 995.472656 661.050781 L 1064.429688 730.003906 C 1065.71875 731.292969 1066.292969 732.871094 1066.292969 734.589844 C 1066.292969 736.167969 1065.71875 737.886719 1064.429688 739.179688 L 995.472656 808.132812 C 994.183594 809.421875 992.609375 809.996094 990.886719 809.996094 C 989.308594 809.996094 987.589844 809.421875 986.300781 808.132812 L 917.347656 739.179688 C 916.054688 737.886719 915.484375 736.3125 915.484375 734.589844 C 915.484375 733.011719 916.054688 731.292969 917.347656 730.003906 L 986.300781 661.050781 C 987.589844 659.757812 989.167969 659.1875 990.886719 659.1875 C 992.464844 659.1875 994.183594 659.757812 995.472656 661.050781 Z M 1063.136719 731.4375 L 994.183594 662.484375 C 993.324219 661.625 992.175781 661.191406 991.03125 661.191406 C 989.882812 661.191406 988.738281 661.625 987.875 662.484375 L 918.921875 731.4375 C 918.0625 732.296875 917.632812 733.445312 917.632812 734.589844 C 917.632812 735.738281 918.0625 736.882812 918.921875 737.746094 L 987.875 806.699219 C 988.738281 807.558594 989.882812 807.988281 991.03125 807.988281 C 992.175781 807.988281 993.324219 807.558594 994.183594 806.699219 L 1063.136719 737.746094 C 1063.996094 736.882812 1064.429688 735.738281 1064.429688 734.589844 C 1064.429688 733.445312 1063.996094 732.296875 1063.136719 731.4375 Z M 1063.136719 731.4375 " fill-opacity="1" fill-rule="nonzero"/></g><path fill="#004aad" d="M 1290.066406 601.128906 L 1318.59375 629.65625 C 1319.167969 630.230469 1319.3125 630.800781 1319.3125 631.519531 C 1319.3125 632.234375 1319.027344 632.953125 1318.59375 633.382812 L 1290.066406 661.910156 C 1289.496094 662.484375 1288.921875 662.625 1288.203125 662.625 C 1287.488281 662.625 1286.769531 662.339844 1286.339844 661.910156 L 1257.8125 633.382812 C 1257.238281 632.808594 1257.097656 632.234375 1257.097656 631.519531 C 1257.097656 630.800781 1257.382812 630.085938 1257.8125 629.65625 L 1286.339844 601.128906 C 1286.914062 600.554688 1287.488281 600.410156 1288.203125 600.410156 C 1288.921875 600.410156 1289.636719 600.699219 1290.066406 601.128906 Z M 1318.023438 630.371094 L 1289.496094 601.84375 C 1289.207031 601.558594 1288.632812 601.269531 1288.203125 601.269531 C 1287.773438 601.269531 1287.34375 601.414062 1286.914062 601.84375 L 1258.386719 630.371094 C 1258.101562 630.660156 1257.8125 631.230469 1257.8125 631.660156 C 1257.8125 632.09375 1257.957031 632.523438 1258.386719 632.953125 L 1286.914062 661.480469 C 1287.199219 661.765625 1287.773438 662.054688 1288.203125 662.054688 C 1288.632812 662.054688 1289.0625 661.910156 1289.496094 661.480469 L 1318.023438 632.953125 C 1318.308594 632.664062 1318.59375 632.09375 1318.59375 631.660156 C 1318.59375 631.230469 1318.453125 630.800781 1318.023438 630.371094 Z M 1318.023438 630.371094 " fill-opacity="1" fill-rule="nonzero"/><path fill="#004aad" d="M 1153.882812 676.960938 L 1208.785156 731.867188 C 1209.789062 732.871094 1210.363281 734.304688 1210.363281 735.59375 C 1210.363281 736.882812 1209.789062 738.316406 1208.785156 739.320312 L 1153.882812 794.226562 C 1152.878906 795.230469 1151.445312 795.804688 1150.152344 795.804688 C 1148.863281 795.804688 1147.429688 795.230469 1146.425781 794.226562 L 1091.523438 739.320312 C 1090.519531 738.316406 1089.945312 736.882812 1089.945312 735.59375 C 1089.945312 734.304688 1090.519531 732.871094 1091.523438 731.867188 L 1146.425781 676.960938 C 1147.429688 675.957031 1148.863281 675.386719 1150.152344 675.386719 C 1151.445312 675.386719 1152.878906 675.957031 1153.882812 676.960938 Z M 1207.351562 733.300781 L 1152.449219 678.394531 C 1151.875 677.820312 1151.015625 677.390625 1150.152344 677.390625 C 1149.292969 677.390625 1148.433594 677.679688 1147.859375 678.394531 L 1092.957031 733.300781 C 1092.382812 733.875 1091.953125 734.734375 1091.953125 735.59375 C 1091.953125 736.453125 1092.238281 737.3125 1092.957031 737.886719 L 1147.859375 792.792969 C 1148.433594 793.367188 1149.292969 793.796875 1150.152344 793.796875 C 1151.015625 793.796875 1151.875 793.507812 1152.449219 792.792969 L 1207.351562 737.886719 C 1207.925781 737.3125 1208.355469 736.453125 1208.355469 735.59375 C 1208.355469 734.734375 1208.070312 733.875 1207.351562 733.300781 Z M 1207.351562 733.300781 " fill-opacity="1" fill-rule="nonzero"/><path fill="#004aad" d="M 1342.964844 498.054688 L 1395.863281 550.953125 C 1397.011719 552.101562 1397.726562 553.675781 1397.726562 555.253906 C 1397.726562 556.832031 1397.152344 558.40625 1395.863281 559.554688 L 1342.964844 612.453125 C 1341.820312 613.597656 1340.242188 614.316406 1338.664062 614.316406 C 1337.089844 614.316406 1335.511719 613.742188 1334.363281 612.453125 L 1281.464844 559.554688 C 1280.320312 558.40625 1279.601562 556.832031 1279.601562 555.253906 C 1279.601562 553.675781 1280.175781 552.101562 1281.464844 550.953125 L 1334.363281 498.054688 C 1335.511719 496.910156 1337.089844 496.191406 1338.664062 496.191406 C 1340.242188 496.191406 1341.820312 496.765625 1342.964844 498.054688 Z M 1392.996094 553.820312 L 1340.097656 500.921875 C 1339.667969 500.492188 1339.09375 500.347656 1338.523438 500.347656 C 1337.949219 500.347656 1337.375 500.492188 1336.945312 500.921875 L 1284.046875 553.820312 C 1283.617188 554.25 1283.472656 554.824219 1283.472656 555.398438 C 1283.472656 555.972656 1283.617188 556.542969 1284.046875 556.972656 L 1336.945312 609.871094 C 1337.375 610.300781 1337.949219 610.445312 1338.523438 610.445312 C 1339.09375 610.445312 1339.667969 610.300781 1340.097656 609.871094 L 1392.996094 556.972656 C 1393.425781 556.542969 1393.570312 555.972656 1393.570312 555.398438 C 1393.570312 554.824219 1393.425781 554.25 1392.996094 553.820312 Z M 1392.996094 553.820312 " fill-opacity="1" fill-rule="nonzero"/><path fill="#004aad" d="M 991.03125 613.742188 L 1030.308594 653.023438 C 1031.3125 654.027344 1031.742188 655.316406 1031.742188 656.605469 C 1031.742188 657.894531 1031.3125 659.1875 1030.308594 660.191406 L 991.03125 699.46875 C 990.027344 700.472656 988.738281 700.902344 987.445312 700.902344 C 986.15625 700.902344 984.867188 700.472656 983.863281 699.46875 L 944.582031 660.191406 C 943.582031 659.1875 943.148438 657.894531 943.148438 656.605469 C 943.148438 655.316406 943.582031 654.027344 944.582031 653.023438 L 983.863281 613.742188 C 984.867188 612.738281 986.15625 612.308594 987.445312 612.308594 C 988.738281 612.308594 990.027344 612.738281 991.03125 613.742188 Z M 1027.585938 655.890625 L 988.308594 616.609375 C 988.164062 616.464844 987.875 616.324219 987.589844 616.324219 C 987.304688 616.324219 987.015625 616.464844 986.875 616.609375 L 947.59375 655.890625 C 947.449219 656.03125 947.308594 656.320312 947.308594 656.605469 C 947.308594 656.890625 947.449219 657.179688 947.59375 657.324219 L 986.875 696.601562 C 987.015625 696.746094 987.304688 696.886719 987.589844 696.886719 C 987.875 696.886719 988.164062 696.746094 988.308594 696.601562 L 1027.585938 657.324219 C 1027.730469 657.179688 1027.871094 656.890625 1027.871094 656.605469 C 1027.871094 656.320312 1027.730469 656.03125 1027.585938 655.890625 Z M 1027.585938 655.890625 " fill-opacity="1" fill-rule="nonzero"/><path fill="#004aad" d="M 1026.726562 571.882812 L 1040.917969 586.074219 C 1041.492188 586.648438 1041.777344 587.507812 1041.777344 588.226562 C 1041.777344 589.085938 1041.492188 589.800781 1040.917969 590.375 L 1026.726562 604.566406 C 1026.152344 605.140625 1025.292969 605.429688 1024.574219 605.429688 C 1023.859375 605.429688 1023 605.140625 1022.425781 604.566406 L 1008.234375 590.375 C 1007.660156 589.800781 1007.371094 588.941406 1007.371094 588.226562 C 1007.371094 587.367188 1007.660156 586.648438 1008.234375 586.074219 L 1022.425781 571.882812 C 1023 571.308594 1023.859375 571.023438 1024.574219 571.023438 C 1025.292969 571.023438 1026.152344 571.308594 1026.726562 571.882812 Z M 1037.476562 588.226562 L 1024.574219 575.324219 L 1011.671875 588.226562 L 1024.574219 601.128906 Z M 1037.476562 588.226562 " fill-opacity="1" fill-rule="nonzero"/><g clip-path="url(#4c9674e32e)"><path fill="#004aad" d="M 815.707031 717.816406 L 827.464844 729.574219 C 827.75 729.859375 827.894531 730.148438 827.894531 730.578125 C 827.894531 730.863281 827.75 731.292969 827.464844 731.582031 L 815.707031 743.335938 C 815.421875 743.621094 815.136719 743.765625 814.703125 743.765625 C 814.417969 743.765625 813.988281 743.621094 813.703125 743.335938 L 801.945312 731.582031 C 801.660156 731.292969 801.515625 731.007812 801.515625 730.578125 C 801.515625 730.289062 801.660156 729.859375 801.945312 729.574219 L 813.703125 717.816406 C 813.988281 717.53125 814.273438 717.386719 814.703125 717.386719 C 814.992188 717.386719 815.421875 717.53125 815.707031 717.816406 Z M 826.746094 730.148438 L 814.992188 718.390625 C 814.847656 718.25 814.847656 718.25 814.703125 718.25 C 814.5625 718.25 814.417969 718.25 814.417969 718.390625 L 802.664062 730.148438 C 802.519531 730.289062 802.519531 730.289062 802.519531 730.433594 C 802.519531 730.578125 802.519531 730.71875 802.664062 730.71875 L 814.417969 742.476562 C 814.5625 742.617188 814.5625 742.617188 814.703125 742.617188 C 814.847656 742.617188 814.992188 742.617188 814.992188 742.476562 L 826.746094 730.71875 C 826.890625 730.578125 826.890625 730.578125 826.890625 730.433594 C 826.890625 730.289062 826.890625 730.148438 826.746094 730.148438 Z M 826.746094 730.148438 " fill-opacity="1" fill-rule="nonzero"/></g><path fill="#004aad" d="M 891.828125 614.316406 L 908.886719 631.375 C 909.605469 632.09375 909.890625 632.808594 909.890625 633.667969 C 909.890625 634.527344 909.605469 635.390625 908.886719 635.960938 L 891.828125 653.023438 C 891.113281 653.738281 890.394531 654.027344 889.535156 654.027344 C 888.675781 654.027344 887.816406 653.738281 887.242188 653.023438 L 870.183594 635.960938 C 869.464844 635.246094 869.179688 634.527344 869.179688 633.667969 C 869.179688 632.808594 869.464844 631.949219 870.183594 631.375 L 887.242188 614.316406 C 887.957031 613.597656 888.675781 613.3125 889.535156 613.3125 C 890.394531 613.3125 891.257812 613.597656 891.828125 614.316406 Z M 905.589844 633.667969 L 889.390625 617.46875 L 873.191406 633.667969 L 889.390625 649.867188 Z M 905.589844 633.667969 " fill-opacity="1" fill-rule="nonzero"/><path fill="#004aad" d="M 1169.648438 474.402344 L 1205.917969 510.671875 C 1206.492188 511.246094 1206.921875 512.105469 1206.921875 512.964844 C 1206.921875 513.824219 1206.636719 514.683594 1205.917969 515.257812 L 1169.648438 551.527344 C 1169.078125 552.101562 1168.214844 552.53125 1167.355469 552.53125 C 1166.496094 552.53125 1165.636719 552.242188 1165.0625 551.527344 L 1128.792969 515.257812 C 1128.222656 514.683594 1127.789062 513.824219 1127.789062 512.964844 C 1127.789062 512.105469 1128.078125 511.246094 1128.792969 510.671875 L 1165.0625 474.402344 C 1165.636719 473.828125 1166.496094 473.398438 1167.355469 473.398438 C 1168.214844 473.398438 1169.078125 473.6875 1169.648438 474.402344 Z M 1205.203125 511.246094 L 1168.933594 474.976562 C 1168.503906 474.546875 1167.785156 474.257812 1167.214844 474.257812 C 1166.640625 474.257812 1165.921875 474.546875 1165.492188 474.976562 L 1129.222656 511.246094 C 1128.792969 511.675781 1128.507812 512.390625 1128.507812 512.964844 C 1128.507812 513.539062 1128.792969 514.253906 1129.222656 514.683594 L 1165.492188 550.953125 C 1165.921875 551.382812 1166.640625 551.671875 1167.214844 551.671875 C 1167.785156 551.671875 1168.503906 551.382812 1168.933594 550.953125 L 1205.203125 514.683594 C 1205.632812 514.253906 1205.917969 513.539062 1205.917969 512.964844 C 1205.917969 512.390625 1205.632812 511.675781 1205.203125 511.246094 Z M 1205.203125 511.246094 " fill-opacity="1" fill-rule="nonzero"/><g clip-path="url(#cee2e08986)"><path fill="#004aad" d="M 1354.003906 373.910156 L 1435.429688 455.335938 C 1436.863281 456.769531 1437.578125 458.632812 1437.578125 460.496094 C 1437.578125 462.359375 1436.863281 464.222656 1435.429688 465.65625 L 1354.003906 547.082031 C 1352.570312 548.515625 1350.707031 549.234375 1348.84375 549.234375 C 1346.980469 549.234375 1345.117188 548.515625 1343.683594 547.082031 L 1262.257812 465.65625 C 1260.824219 464.222656 1260.105469 462.359375 1260.105469 460.496094 C 1260.105469 458.632812 1260.824219 456.769531 1262.257812 455.335938 L 1343.683594 373.910156 C 1345.117188 372.476562 1346.980469 371.761719 1348.84375 371.761719 C 1350.707031 371.761719 1352.570312 372.476562 1354.003906 373.910156 Z M 1433.996094 456.625 L 1352.570312 375.199219 C 1351.566406 374.199219 1350.132812 373.625 1348.699219 373.625 C 1347.265625 373.625 1345.976562 374.199219 1344.828125 375.199219 L 1263.402344 456.625 C 1262.402344 457.628906 1261.828125 459.0625 1261.828125 460.496094 C 1261.828125 461.929688 1262.402344 463.222656 1263.402344 464.367188 L 1344.828125 545.792969 C 1345.832031 546.796875 1347.265625 547.371094 1348.699219 547.371094 C 1350.132812 547.371094 1351.421875 546.796875 1352.570312 545.792969 L 1433.996094 464.367188 C 1435 463.363281 1435.574219 461.929688 1435.574219 460.496094 C 1435.574219 459.0625 1435 457.773438 1433.996094 456.625 Z M 1433.996094 456.625 " fill-opacity="1" fill-rule="nonzero"/></g><path fill="#004aad" d="M 1219.824219 419.640625 L 1234.015625 433.832031 C 1234.589844 434.40625 1234.875 435.265625 1234.875 435.984375 C 1234.875 436.699219 1234.589844 437.558594 1234.015625 438.132812 L 1219.824219 452.324219 C 1219.25 452.898438 1218.390625 453.1875 1217.675781 453.1875 C 1216.8125 453.1875 1216.097656 452.898438 1215.523438 452.324219 L 1201.332031 438.132812 C 1200.757812 437.558594 1200.472656 436.699219 1200.472656 435.984375 C 1200.472656 435.265625 1200.757812 434.40625 1201.332031 433.832031 L 1215.523438 419.640625 C 1216.097656 419.066406 1216.957031 418.78125 1217.675781 418.78125 C 1218.535156 418.78125 1219.25 419.066406 1219.824219 419.640625 Z M 1230.574219 435.984375 L 1217.675781 423.082031 L 1204.773438 435.984375 L 1217.675781 448.886719 Z M 1230.574219 435.984375 " fill-opacity="1" fill-rule="nonzero"/><path fill="#004aad" d="M 1087.9375 485.585938 L 1097.6875 495.332031 C 1097.972656 495.617188 1097.972656 495.90625 1097.972656 496.191406 C 1097.972656 496.480469 1097.828125 496.765625 1097.6875 497.050781 L 1087.9375 506.800781 C 1087.652344 507.085938 1087.363281 507.085938 1087.078125 507.085938 C 1086.792969 507.085938 1086.503906 506.945312 1086.21875 506.800781 L 1076.46875 497.050781 C 1076.183594 496.765625 1076.183594 496.480469 1076.183594 496.191406 C 1076.183594 495.90625 1076.328125 495.617188 1076.46875 495.332031 L 1086.21875 485.585938 C 1086.503906 485.296875 1086.792969 485.296875 1087.078125 485.296875 C 1087.363281 485.296875 1087.652344 485.441406 1087.9375 485.585938 Z M 1097.113281 495.90625 L 1087.363281 486.15625 C 1087.363281 486.15625 1087.222656 486.015625 1087.078125 486.015625 C 1086.933594 486.015625 1086.933594 486.015625 1086.792969 486.15625 L 1077.042969 495.90625 C 1077.042969 495.90625 1076.898438 496.050781 1076.898438 496.191406 C 1076.898438 496.335938 1076.898438 496.335938 1077.042969 496.480469 L 1086.792969 506.226562 C 1086.792969 506.226562 1086.933594 506.371094 1087.078125 506.371094 C 1087.222656 506.371094 1087.222656 506.371094 1087.363281 506.226562 L 1097.113281 496.480469 C 1097.113281 496.480469 1097.257812 496.335938 1097.257812 496.191406 C 1097.257812 496.050781 1097.257812 496.050781 1097.113281 495.90625 Z M 1097.113281 495.90625 " fill-opacity="1" fill-rule="nonzero"/><path fill="#004aad" d="M 1304.832031 386.382812 L 1327.484375 409.03125 C 1327.914062 409.460938 1328.199219 410.035156 1328.199219 410.609375 C 1328.199219 411.183594 1327.914062 411.757812 1327.484375 412.1875 L 1304.832031 434.835938 C 1304.402344 435.265625 1303.828125 435.554688 1303.257812 435.554688 C 1302.683594 435.554688 1302.109375 435.265625 1301.679688 434.835938 L 1279.03125 412.1875 C 1278.597656 411.757812 1278.3125 411.183594 1278.3125 410.609375 C 1278.3125 410.035156 1278.597656 409.460938 1279.03125 409.03125 L 1301.679688 386.382812 C 1302.109375 385.953125 1302.683594 385.664062 1303.257812 385.664062 C 1303.828125 385.664062 1304.402344 385.953125 1304.832031 386.382812 Z M 1326.910156 409.75 L 1304.261719 387.097656 C 1303.972656 386.8125 1303.6875 386.667969 1303.257812 386.667969 C 1302.96875 386.667969 1302.539062 386.8125 1302.253906 387.097656 L 1279.601562 409.75 C 1279.316406 410.035156 1279.171875 410.324219 1279.171875 410.753906 C 1279.171875 411.039062 1279.316406 411.46875 1279.601562 411.757812 L 1302.253906 434.40625 C 1302.539062 434.691406 1302.828125 434.835938 1303.257812 434.835938 C 1303.542969 434.835938 1303.972656 434.691406 1304.261719 434.40625 L 1326.910156 411.757812 C 1327.195312 411.46875 1327.339844 411.183594 1327.339844 410.753906 C 1327.339844 410.464844 1327.195312 410.035156 1326.910156 409.75 Z M 1326.910156 409.75 " fill-opacity="1" fill-rule="nonzero"/><g clip-path="url(#7c54692471)"><path fill="#ffde59" d="M 46.671875 139.957031 L 46.339844 555.539062 L 334.929688 348.160156 Z M 46.671875 139.957031 " fill-opacity="1" fill-rule="nonzero"/></g><g clip-path="url(#e236a8eb6a)"><path fill="#ffde59" d="M 143.691406 146.050781 L 423.546875 348.160156 L 143.527344 549.28125 L 143.691406 146.050781 M 143.691406 139.460938 C 142.703125 139.460938 141.714844 139.625 140.726562 140.121094 C 138.585938 141.273438 137.101562 143.578125 137.101562 146.050781 L 136.9375 549.28125 C 136.9375 551.753906 138.253906 554.058594 140.5625 555.210938 C 141.550781 555.707031 142.539062 555.871094 143.527344 555.871094 C 144.84375 555.871094 146.160156 555.375 147.3125 554.550781 L 427.335938 353.429688 C 428.984375 352.113281 430.136719 350.136719 430.136719 348.160156 C 430.136719 346.019531 429.148438 344.042969 427.335938 342.890625 L 147.644531 140.777344 C 146.492188 139.957031 145.171875 139.460938 143.691406 139.460938 Z M 143.691406 139.460938 " fill-opacity="1" fill-rule="nonzero"/></g><g clip-path="url(#9c52725b14)"><path fill="#ffde59" d="M 236.59375 146.378906 L 516.285156 348.488281 L 236.261719 549.609375 L 236.59375 146.378906 M 236.59375 139.789062 C 235.605469 139.789062 234.617188 139.957031 233.628906 140.449219 C 231.484375 141.601562 230.003906 143.910156 230.003906 146.378906 L 229.671875 549.609375 C 229.671875 552.082031 230.992188 554.386719 233.296875 555.539062 C 234.285156 556.035156 235.273438 556.199219 236.261719 556.199219 C 237.582031 556.199219 238.898438 555.707031 240.050781 554.882812 L 520.074219 353.761719 C 521.71875 352.441406 522.875 350.464844 522.875 348.488281 C 522.875 346.347656 521.882812 344.371094 520.074219 343.21875 L 240.546875 141.109375 C 239.390625 140.285156 237.910156 139.789062 236.59375 139.789062 Z M 236.59375 139.789062 " fill-opacity="1" fill-rule="nonzero"/></g></svg>